<?xml version="1.0" encoding="UTF-8" standalone="no"?><!DOCTYPE svg PUBLIC "-//W3C//DTD SVG 1.1//EN" "http://www.w3.org/Graphics/SVG/1.1/DTD/svg11.dtd"><svg width="100%" height="100%" viewBox="0 0 50 9" version="1.1" xmlns="http://www.w3.org/2000/svg" xmlns:xlink="http://www.w3.org/1999/xlink" xml:space="preserve" style="fill-rule:evenodd;clip-rule:evenodd;stroke-linejoin:round;stroke-miterlimit:1.41421;"><path d="M0.879,8.596l0,-8.59l3.223,0c0.656,0 1.182,0.087 1.579,0.261c0.396,0.173 0.707,0.441 0.931,0.802c0.225,0.362 0.337,0.74 0.337,1.134c0,0.367 -0.099,0.713 -0.299,1.037c-0.199,0.324 -0.5,0.586 -0.902,0.785c0.52,0.153 0.919,0.412 1.198,0.78c0.28,0.367 0.419,0.8 0.419,1.3c0,0.403 -0.085,0.777 -0.255,1.123c-0.17,0.345 -0.38,0.612 -0.63,0.799c-0.25,0.188 -0.563,0.329 -0.94,0.425c-0.377,0.096 -0.839,0.144 -1.386,0.144l-3.275,0Zm1.137,-4.981l1.857,0c0.504,0 0.865,-0.033 1.084,-0.099c0.289,-0.086 0.507,-0.229 0.653,-0.428c0.147,-0.199 0.22,-0.449 0.22,-0.75c0,-0.285 -0.068,-0.536 -0.205,-0.753c-0.137,-0.217 -0.332,-0.365 -0.586,-0.445c-0.254,-0.08 -0.689,-0.12 -1.307,-0.12l-1.716,0l0,2.595Zm0,3.967l2.138,0c0.367,0 0.625,-0.014 0.774,-0.041c0.261,-0.047 0.48,-0.125 0.656,-0.234c0.176,-0.11 0.32,-0.269 0.434,-0.478c0.113,-0.209 0.17,-0.45 0.17,-0.724c0,-0.32 -0.083,-0.598 -0.247,-0.834c-0.164,-0.237 -0.391,-0.403 -0.682,-0.499c-0.291,-0.095 -0.71,-0.143 -1.257,-0.143l-1.986,0l0,2.953Z" style="fill-rule:nonzero;"/><path d="M8.953,8.596l0,-8.59l6.211,0l0,1.014l-5.074,0l0,2.63l4.752,0l0,1.008l-4.752,0l0,2.924l5.273,0l0,1.014l-6.41,0Z" style="fill-rule:nonzero;"/><path d="M19.119,8.596l0,-7.576l-2.83,0l0,-1.014l6.809,0l0,1.014l-2.842,0l0,7.576l-1.137,0Z" style="fill-rule:nonzero;"/><path d="M24.281,8.596l0,-8.59l3.809,0c0.765,0 1.348,0.077 1.746,0.231c0.398,0.155 0.717,0.427 0.955,0.818c0.238,0.39 0.357,0.822 0.357,1.295c0,0.609 -0.197,1.123 -0.591,1.541c-0.395,0.418 -1.004,0.683 -1.828,0.796c0.3,0.145 0.529,0.288 0.685,0.428c0.332,0.305 0.647,0.686 0.943,1.143l1.495,2.338l-1.43,0l-1.137,-1.787c-0.332,-0.516 -0.605,-0.911 -0.82,-1.184c-0.215,-0.273 -0.407,-0.465 -0.577,-0.574c-0.17,-0.11 -0.343,-0.186 -0.519,-0.229c-0.129,-0.027 -0.34,-0.041 -0.633,-0.041l-1.318,0l0,3.815l-1.137,0Zm1.137,-4.799l2.443,0c0.52,0 0.926,-0.054 1.219,-0.161c0.293,-0.108 0.516,-0.28 0.668,-0.516c0.152,-0.236 0.229,-0.493 0.229,-0.77c0,-0.407 -0.148,-0.741 -0.443,-1.002c-0.295,-0.262 -0.761,-0.393 -1.397,-0.393l-2.719,0l0,2.842Z" style="fill-rule:nonzero;"/><path d="M31.986,8.596l3.299,-8.59l1.225,0l3.515,8.59l-1.295,0l-1.001,-2.602l-3.592,0l-0.944,2.602l-1.207,0Zm2.479,-3.528l2.912,0l-0.897,-2.379c-0.273,-0.722 -0.476,-1.316 -0.609,-1.781c-0.109,0.551 -0.264,1.098 -0.463,1.641l-0.943,2.519Z" style="fill-rule:nonzero;"/><path d="M44.953,5.227l0,-1.008l3.639,-0.006l0,3.187c-0.559,0.446 -1.135,0.781 -1.729,1.005c-0.593,0.225 -1.203,0.337 -1.828,0.337c-0.844,0 -1.61,-0.18 -2.3,-0.542c-0.689,-0.361 -1.21,-0.884 -1.561,-1.567c-0.352,-0.684 -0.528,-1.447 -0.528,-2.291c0,-0.836 0.175,-1.616 0.525,-2.341c0.35,-0.725 0.852,-1.263 1.509,-1.614c0.656,-0.352 1.412,-0.528 2.267,-0.528c0.621,0 1.183,0.101 1.685,0.302c0.502,0.201 0.895,0.482 1.18,0.841c0.286,0.359 0.502,0.828 0.651,1.406l-1.026,0.281c-0.128,-0.437 -0.289,-0.781 -0.48,-1.031c-0.191,-0.25 -0.465,-0.45 -0.82,-0.6c-0.356,-0.151 -0.75,-0.226 -1.184,-0.226c-0.519,0 -0.969,0.079 -1.348,0.237c-0.378,0.159 -0.684,0.367 -0.917,0.624c-0.232,0.258 -0.413,0.541 -0.542,0.85c-0.218,0.531 -0.328,1.107 -0.328,1.728c0,0.766 0.132,1.407 0.396,1.922c0.264,0.516 0.647,0.899 1.151,1.149c0.504,0.25 1.039,0.375 1.606,0.375c0.492,0 0.972,-0.095 1.441,-0.284c0.469,-0.19 0.824,-0.392 1.067,-0.607l0,-1.599l-2.526,0Z" style="fill-rule:nonzero;"/></svg>