<?xml version="1.0" encoding="UTF-8" standalone="no"?><!DOCTYPE svg PUBLIC "-//W3C//DTD SVG 1.1//EN" "http://www.w3.org/Graphics/SVG/1.1/DTD/svg11.dtd"><svg width="100%" height="100%" viewBox="0 0 69 9" version="1.1" xmlns="http://www.w3.org/2000/svg" xmlns:xlink="http://www.w3.org/1999/xlink" xml:space="preserve" style="fill-rule:evenodd;clip-rule:evenodd;stroke-linejoin:round;stroke-miterlimit:1.41421;"><path d="M7.075,5.748l1.137,0.287c-0.238,0.933 -0.667,1.645 -1.286,2.135c-0.619,0.491 -1.376,0.736 -2.271,0.736c-0.926,0 -1.678,-0.189 -2.259,-0.566c-0.58,-0.377 -1.021,-0.923 -1.324,-1.637c-0.303,-0.715 -0.454,-1.483 -0.454,-2.303c0,-0.895 0.171,-1.675 0.513,-2.341c0.342,-0.666 0.828,-1.172 1.459,-1.517c0.631,-0.346 1.325,-0.519 2.083,-0.519c0.859,0 1.582,0.219 2.168,0.656c0.586,0.438 0.994,1.053 1.224,1.846l-1.119,0.264c-0.199,-0.625 -0.488,-1.08 -0.867,-1.366c-0.379,-0.285 -0.855,-0.427 -1.43,-0.427c-0.66,0 -1.212,0.158 -1.655,0.474c-0.443,0.317 -0.755,0.741 -0.934,1.275c-0.18,0.533 -0.27,1.083 -0.27,1.649c0,0.731 0.106,1.368 0.319,1.913c0.213,0.545 0.544,0.952 0.993,1.222c0.45,0.269 0.936,0.404 1.459,0.404c0.637,0 1.176,-0.183 1.618,-0.551c0.441,-0.367 0.74,-0.912 0.896,-1.634Z" style="fill-rule:nonzero;"/><path d="M9.647,8.759l0,-8.59l1.137,0l0,3.528l4.465,0l0,-3.528l1.137,0l0,8.59l-1.137,0l0,-4.049l-4.465,0l0,4.049l-1.137,0Z" style="fill-rule:nonzero;"/><path d="M18.302,8.759l0,-8.59l6.211,0l0,1.014l-5.075,0l0,2.631l4.752,0l0,1.008l-4.752,0l0,2.924l5.274,0l0,1.013l-6.41,0Z" style="fill-rule:nonzero;"/><path d="M32.411,5.748l1.137,0.287c-0.238,0.933 -0.667,1.645 -1.286,2.135c-0.619,0.491 -1.376,0.736 -2.271,0.736c-0.926,0 -1.679,-0.189 -2.259,-0.566c-0.58,-0.377 -1.021,-0.923 -1.324,-1.637c-0.303,-0.715 -0.454,-1.483 -0.454,-2.303c0,-0.895 0.171,-1.675 0.513,-2.341c0.342,-0.666 0.828,-1.172 1.459,-1.517c0.631,-0.346 1.325,-0.519 2.083,-0.519c0.859,0 1.582,0.219 2.168,0.656c0.586,0.438 0.994,1.053 1.224,1.846l-1.119,0.264c-0.199,-0.625 -0.488,-1.08 -0.867,-1.366c-0.379,-0.285 -0.855,-0.427 -1.43,-0.427c-0.66,0 -1.212,0.158 -1.655,0.474c-0.443,0.317 -0.755,0.741 -0.935,1.275c-0.179,0.533 -0.269,1.083 -0.269,1.649c0,0.731 0.106,1.368 0.319,1.913c0.213,0.545 0.544,0.952 0.993,1.222c0.45,0.269 0.936,0.404 1.459,0.404c0.637,0 1.176,-0.183 1.618,-0.551c0.441,-0.367 0.74,-0.912 0.896,-1.634Z" style="fill-rule:nonzero;"/><path d="M34.901,8.759l0,-8.59l1.137,0l0,4.26l4.266,-4.26l1.541,0l-3.604,3.481l3.762,5.109l-1.5,0l-3.059,-4.347l-1.406,1.371l0,2.976l-1.137,0Z" style="fill-rule:nonzero;"/><path d="M42.905,8.759l0,-8.59l3.223,0c0.656,0 1.182,0.087 1.579,0.261c0.396,0.174 0.707,0.442 0.932,0.803c0.224,0.361 0.337,0.739 0.337,1.134c0,0.367 -0.1,0.713 -0.299,1.037c-0.2,0.324 -0.5,0.586 -0.903,0.785c0.52,0.152 0.919,0.412 1.199,0.779c0.279,0.367 0.419,0.801 0.419,1.301c0,0.402 -0.085,0.776 -0.255,1.122c-0.17,0.346 -0.38,0.612 -0.63,0.8c-0.25,0.187 -0.564,0.329 -0.941,0.425c-0.377,0.095 -0.839,0.143 -1.385,0.143l-3.276,0Zm1.137,-4.98l1.857,0c0.504,0 0.866,-0.033 1.084,-0.1c0.289,-0.086 0.507,-0.228 0.654,-0.428c0.146,-0.199 0.219,-0.449 0.219,-0.75c0,-0.285 -0.068,-0.536 -0.205,-0.752c-0.136,-0.217 -0.332,-0.366 -0.586,-0.446c-0.254,-0.08 -0.689,-0.12 -1.306,-0.12l-1.717,0l0,2.596Zm0,3.967l2.139,0c0.367,0 0.625,-0.014 0.773,-0.041c0.262,-0.047 0.481,-0.125 0.656,-0.235c0.176,-0.109 0.321,-0.268 0.434,-0.477c0.113,-0.209 0.17,-0.451 0.17,-0.724c0,-0.32 -0.082,-0.599 -0.246,-0.835c-0.164,-0.236 -0.392,-0.402 -0.683,-0.498c-0.291,-0.096 -0.71,-0.144 -1.257,-0.144l-1.986,0l0,2.954Z" style="fill-rule:nonzero;"/><path d="M50.61,4.576c0,-1.426 0.383,-2.542 1.149,-3.349c0.765,-0.807 1.754,-1.21 2.965,-1.21c0.793,0 1.507,0.19 2.144,0.568c0.637,0.379 1.122,0.908 1.456,1.585c0.334,0.678 0.501,1.447 0.501,2.306c0,0.871 -0.176,1.65 -0.527,2.338c-0.352,0.687 -0.85,1.208 -1.494,1.562c-0.645,0.353 -1.34,0.53 -2.086,0.53c-0.809,0 -1.532,-0.196 -2.168,-0.586c-0.637,-0.391 -1.119,-0.924 -1.448,-1.6c-0.328,-0.676 -0.492,-1.39 -0.492,-2.144Zm1.172,0.017c0,1.035 0.278,1.851 0.835,2.447c0.557,0.595 1.255,0.893 2.095,0.893c0.855,0 1.559,-0.301 2.112,-0.902c0.553,-0.602 0.829,-1.455 0.829,-2.561c0,-0.699 -0.118,-1.309 -0.354,-1.831c-0.237,-0.521 -0.582,-0.926 -1.037,-1.213c-0.455,-0.287 -0.966,-0.43 -1.533,-0.43c-0.804,0 -1.497,0.276 -2.077,0.829c-0.58,0.552 -0.87,1.475 -0.87,2.768Z" style="fill-rule:nonzero;"/><path d="M59.417,8.759l3.322,-4.476l-2.929,-4.114l1.353,0l1.559,2.204c0.324,0.457 0.554,0.808 0.691,1.054c0.191,-0.312 0.418,-0.638 0.68,-0.978l1.728,-2.28l1.237,0l-3.018,4.049l3.252,4.541l-1.406,0l-2.162,-3.064c-0.122,-0.176 -0.247,-0.367 -0.375,-0.574c-0.192,0.312 -0.329,0.527 -0.411,0.644l-2.156,2.994l-1.365,0Z" style="fill-rule:nonzero;"/></svg>