<?xml version="1.0" encoding="UTF-8" standalone="no"?><!DOCTYPE svg PUBLIC "-//W3C//DTD SVG 1.1//EN" "http://www.w3.org/Graphics/SVG/1.1/DTD/svg11.dtd"><svg width="100%" height="100%" viewBox="0 0 31 9" version="1.1" xmlns="http://www.w3.org/2000/svg" xmlns:xlink="http://www.w3.org/1999/xlink" xml:space="preserve" style="fill-rule:evenodd;clip-rule:evenodd;stroke-linejoin:round;stroke-miterlimit:1.41421;"><path d="M0.946,8.759l0,-8.59l2.959,0c0.668,0 1.178,0.041 1.53,0.123c0.492,0.114 0.912,0.319 1.259,0.616c0.453,0.383 0.792,0.872 1.017,1.468c0.224,0.595 0.337,1.276 0.337,2.041c0,0.653 -0.076,1.231 -0.229,1.735c-0.152,0.504 -0.347,0.921 -0.586,1.251c-0.238,0.33 -0.499,0.59 -0.782,0.779c-0.283,0.19 -0.625,0.333 -1.025,0.431c-0.401,0.097 -0.861,0.146 -1.38,0.146l-3.1,0Zm1.137,-1.013l1.834,0c0.566,0 1.011,-0.053 1.333,-0.159c0.322,-0.105 0.579,-0.253 0.77,-0.445c0.27,-0.269 0.48,-0.632 0.63,-1.087c0.151,-0.455 0.226,-1.007 0.226,-1.655c0,-0.899 -0.148,-1.589 -0.442,-2.071c-0.295,-0.483 -0.654,-0.806 -1.076,-0.97c-0.304,-0.117 -0.795,-0.176 -1.47,-0.176l-1.805,0l0,6.563Z" style="fill-rule:nonzero;"/><path d="M8.669,8.759l3.299,-8.59l1.224,0l3.516,8.59l-1.295,0l-1.002,-2.601l-3.592,0l-0.943,2.601l-1.207,0Zm2.478,-3.527l2.913,0l-0.897,-2.379c-0.273,-0.723 -0.477,-1.316 -0.609,-1.781c-0.11,0.551 -0.264,1.097 -0.463,1.64l-0.944,2.52Z" style="fill-rule:nonzero;"/><path d="M18.911,8.759l0,-7.576l-2.83,0l0,-1.014l6.809,0l0,1.014l-2.842,0l0,7.576l-1.137,0Z" style="fill-rule:nonzero;"/><path d="M24.079,8.759l0,-8.59l6.211,0l0,1.014l-5.074,0l0,2.631l4.752,0l0,1.008l-4.752,0l0,2.924l5.273,0l0,1.013l-6.41,0Z" style="fill-rule:nonzero;"/></svg>