<?xml version="1.0" encoding="UTF-8" standalone="no"?><!DOCTYPE svg PUBLIC "-//W3C//DTD SVG 1.1//EN" "http://www.w3.org/Graphics/SVG/1.1/DTD/svg11.dtd"><svg width="100%" height="100%" viewBox="0 0 69 9" version="1.1" xmlns="http://www.w3.org/2000/svg" xmlns:xlink="http://www.w3.org/1999/xlink" xml:space="preserve" style="fill-rule:evenodd;clip-rule:evenodd;stroke-linejoin:round;stroke-miterlimit:1.41421;"><path d="M0.946,8.759l0,-8.59l2.959,0c0.668,0 1.178,0.041 1.53,0.123c0.492,0.114 0.912,0.319 1.259,0.616c0.453,0.383 0.792,0.872 1.017,1.468c0.224,0.595 0.337,1.276 0.337,2.041c0,0.653 -0.076,1.231 -0.229,1.735c-0.152,0.504 -0.347,0.921 -0.586,1.251c-0.238,0.33 -0.499,0.59 -0.782,0.779c-0.283,0.19 -0.625,0.333 -1.025,0.431c-0.401,0.097 -0.861,0.146 -1.38,0.146l-3.1,0Zm1.137,-1.013l1.834,0c0.566,0 1.011,-0.053 1.333,-0.159c0.322,-0.105 0.579,-0.253 0.77,-0.445c0.27,-0.269 0.48,-0.632 0.63,-1.087c0.151,-0.455 0.226,-1.007 0.226,-1.655c0,-0.899 -0.148,-1.589 -0.442,-2.071c-0.295,-0.483 -0.654,-0.806 -1.076,-0.97c-0.304,-0.117 -0.795,-0.176 -1.47,-0.176l-1.805,0l0,6.563Z" style="fill-rule:nonzero;"/><path d="M9.267,4.576c0,-1.426 0.382,-2.542 1.148,-3.349c0.766,-0.807 1.754,-1.21 2.965,-1.21c0.793,0 1.508,0.19 2.144,0.568c0.637,0.379 1.122,0.908 1.456,1.585c0.334,0.678 0.501,1.447 0.501,2.306c0,0.871 -0.175,1.65 -0.527,2.338c-0.352,0.687 -0.85,1.208 -1.494,1.562c-0.645,0.353 -1.34,0.53 -2.086,0.53c-0.809,0 -1.531,-0.196 -2.168,-0.586c-0.637,-0.391 -1.119,-0.924 -1.447,-1.6c-0.328,-0.676 -0.492,-1.39 -0.492,-2.144Zm1.171,0.017c0,1.035 0.279,1.851 0.835,2.447c0.557,0.595 1.255,0.893 2.095,0.893c0.856,0 1.56,-0.301 2.112,-0.902c0.553,-0.602 0.83,-1.455 0.83,-2.561c0,-0.699 -0.119,-1.309 -0.355,-1.831c-0.236,-0.521 -0.582,-0.926 -1.037,-1.213c-0.455,-0.287 -0.966,-0.43 -1.532,-0.43c-0.805,0 -1.497,0.276 -2.077,0.829c-0.581,0.552 -0.871,1.475 -0.871,2.768Z" style="fill-rule:nonzero;"/><path d="M18.899,8.759l0,-8.59l1.137,0l0,4.26l4.266,-4.26l1.541,0l-3.604,3.481l3.762,5.109l-1.5,0l-3.059,-4.347l-1.406,1.371l0,2.976l-1.137,0Z" style="fill-rule:nonzero;"/><path d="M32.587,0.169l1.137,0l0,4.963c0,0.864 -0.098,1.549 -0.293,2.057c-0.196,0.508 -0.548,0.921 -1.058,1.239c-0.51,0.319 -1.179,0.478 -2.007,0.478c-0.805,0 -1.463,-0.139 -1.974,-0.416c-0.512,-0.278 -0.877,-0.679 -1.096,-1.204c-0.219,-0.526 -0.328,-1.244 -0.328,-2.154l0,-4.963l1.136,0l0,4.957c0,0.747 0.07,1.296 0.208,1.65c0.139,0.353 0.377,0.626 0.715,0.817c0.338,0.192 0.751,0.287 1.24,0.287c0.835,0 1.431,-0.189 1.787,-0.568c0.355,-0.379 0.533,-1.107 0.533,-2.186l0,-4.957Z" style="fill-rule:nonzero;"/><path d="M35.581,8.759l0,-8.59l1.711,0l2.033,6.082c0.188,0.567 0.324,0.991 0.41,1.272c0.098,-0.313 0.25,-0.772 0.457,-1.377l2.057,-5.977l1.529,0l0,8.59l-1.095,0l0,-7.189l-2.497,7.189l-1.025,0l-2.484,-7.312l0,7.312l-1.096,0Z" style="fill-rule:nonzero;"/><path d="M45.636,8.759l0,-8.59l6.211,0l0,1.014l-5.075,0l0,2.631l4.752,0l0,1.008l-4.752,0l0,2.924l5.274,0l0,1.013l-6.41,0Z" style="fill-rule:nonzero;"/><path d="M53.604,8.759l0,-8.59l1.166,0l4.512,6.745l0,-6.745l1.09,0l0,8.59l-1.166,0l-4.512,-6.75l0,6.75l-1.09,0Z" style="fill-rule:nonzero;"/><path d="M64.468,8.759l0,-7.576l-2.83,0l0,-1.014l6.808,0l0,1.014l-2.842,0l0,7.576l-1.136,0Z" style="fill-rule:nonzero;"/></svg>