<?xml version="1.0" encoding="UTF-8" standalone="no"?><!DOCTYPE svg PUBLIC "-//W3C//DTD SVG 1.1//EN" "http://www.w3.org/Graphics/SVG/1.1/DTD/svg11.dtd"><svg width="100%" height="100%" viewBox="0 0 64 9" version="1.1" xmlns="http://www.w3.org/2000/svg" xmlns:xlink="http://www.w3.org/1999/xlink" xml:space="preserve" style="fill-rule:evenodd;clip-rule:evenodd;stroke-linejoin:round;stroke-miterlimit:1.41421;"><path d="M4.966,5.39l0,-1.008l3.638,-0.006l0,3.188c-0.558,0.445 -1.134,0.78 -1.728,1.005c-0.594,0.224 -1.203,0.337 -1.828,0.337c-0.844,0 -1.611,-0.181 -2.3,-0.542c-0.689,-0.362 -1.21,-0.884 -1.562,-1.568c-0.351,-0.683 -0.527,-1.447 -0.527,-2.291c0,-0.836 0.175,-1.616 0.525,-2.34c0.349,-0.725 0.852,-1.263 1.508,-1.615c0.657,-0.351 1.412,-0.527 2.268,-0.527c0.621,0 1.183,0.101 1.684,0.302c0.502,0.201 0.896,0.481 1.181,0.841c0.285,0.359 0.502,0.828 0.651,1.406l-1.026,0.281c-0.129,-0.437 -0.289,-0.781 -0.48,-1.031c-0.192,-0.25 -0.465,-0.45 -0.821,-0.601c-0.355,-0.15 -0.75,-0.225 -1.183,-0.225c-0.52,0 -0.969,0.079 -1.348,0.237c-0.379,0.158 -0.684,0.366 -0.917,0.624c-0.232,0.258 -0.413,0.541 -0.542,0.85c-0.219,0.531 -0.328,1.107 -0.328,1.728c0,0.766 0.132,1.406 0.396,1.922c0.263,0.516 0.647,0.898 1.151,1.148c0.504,0.25 1.039,0.375 1.605,0.375c0.493,0 0.973,-0.094 1.442,-0.284c0.468,-0.189 0.824,-0.391 1.066,-0.606l0,-1.6l-2.525,0Z" style="fill-rule:nonzero;"/><path d="M9.337,8.759l3.299,-8.59l1.224,0l3.516,8.59l-1.295,0l-1.002,-2.601l-3.592,0l-0.943,2.601l-1.207,0Zm2.478,-3.527l2.912,0l-0.896,-2.379c-0.273,-0.723 -0.477,-1.316 -0.609,-1.781c-0.11,0.551 -0.264,1.097 -0.463,1.64l-0.944,2.52Z" style="fill-rule:nonzero;"/><path d="M18.272,8.759l0,-8.59l1.166,0l4.512,6.745l0,-6.745l1.09,0l0,8.59l-1.166,0l-4.512,-6.75l0,6.75l-1.09,0Z" style="fill-rule:nonzero;"/><path d="M26.265,8.759l0,-1.054l4.4,-5.502c0.312,-0.391 0.609,-0.731 0.891,-1.02l-4.793,0l0,-1.014l6.152,0l0,1.014l-4.822,5.959l-0.522,0.604l5.485,0l0,1.013l-6.791,0Z" style="fill-rule:nonzero;"/><path d="M33.595,8.759l0,-1.054l4.4,-5.502c0.313,-0.391 0.609,-0.731 0.891,-1.02l-4.793,0l0,-1.014l6.152,0l0,1.014l-4.822,5.959l-0.522,0.604l5.485,0l0,1.013l-6.791,0Z" style="fill-rule:nonzero;"/><path d="M40.667,8.759l3.299,-8.59l1.224,0l3.516,8.59l-1.295,0l-1.002,-2.601l-3.592,0l-0.943,2.601l-1.207,0Zm2.478,-3.527l2.913,0l-0.897,-2.379c-0.273,-0.723 -0.476,-1.316 -0.609,-1.781c-0.11,0.551 -0.264,1.097 -0.463,1.64l-0.944,2.52Z" style="fill-rule:nonzero;"/><path d="M49.649,8.759l0,-8.59l1.137,0l0,3.528l4.465,0l0,-3.528l1.137,0l0,8.59l-1.137,0l0,-4.049l-4.465,0l0,4.049l-1.137,0Z" style="fill-rule:nonzero;"/><path d="M58.233,8.759l0,-8.59l1.137,0l0,7.577l4.231,0l0,1.013l-5.368,0Z" style="fill-rule:nonzero;"/></svg>