<?xml version="1.0" encoding="UTF-8" standalone="no"?><!DOCTYPE svg PUBLIC "-//W3C//DTD SVG 1.1//EN" "http://www.w3.org/Graphics/SVG/1.1/DTD/svg11.dtd"><svg width="100%" height="100%" viewBox="0 0 28 9" version="1.1" xmlns="http://www.w3.org/2000/svg" xmlns:xlink="http://www.w3.org/1999/xlink" xml:space="preserve" style="fill-rule:evenodd;clip-rule:evenodd;stroke-linejoin:round;stroke-miterlimit:1.41421;"><rect x="1.14" y="0.169" width="1.137" height="8.59" style="fill-rule:nonzero;"/><path d="M4.233,8.759l0,-8.59l3.223,0c0.656,0 1.183,0.087 1.579,0.261c0.397,0.174 0.707,0.442 0.932,0.803c0.224,0.361 0.337,0.739 0.337,1.134c0,0.367 -0.1,0.713 -0.299,1.037c-0.199,0.324 -0.5,0.586 -0.903,0.785c0.52,0.152 0.919,0.412 1.199,0.779c0.279,0.367 0.419,0.801 0.419,1.301c0,0.402 -0.085,0.776 -0.255,1.122c-0.17,0.346 -0.38,0.612 -0.63,0.8c-0.25,0.187 -0.564,0.329 -0.941,0.425c-0.376,0.095 -0.838,0.143 -1.385,0.143l-3.276,0Zm1.137,-4.98l1.857,0c0.504,0 0.866,-0.033 1.084,-0.1c0.29,-0.086 0.507,-0.228 0.654,-0.428c0.146,-0.199 0.22,-0.449 0.22,-0.75c0,-0.285 -0.069,-0.536 -0.206,-0.752c-0.136,-0.217 -0.332,-0.366 -0.586,-0.446c-0.253,-0.08 -0.689,-0.12 -1.306,-0.12l-1.717,0l0,2.596Zm0,3.967l2.139,0c0.367,0 0.625,-0.014 0.773,-0.041c0.262,-0.047 0.481,-0.125 0.656,-0.235c0.176,-0.109 0.321,-0.268 0.434,-0.477c0.113,-0.209 0.17,-0.451 0.17,-0.724c0,-0.32 -0.082,-0.599 -0.246,-0.835c-0.164,-0.236 -0.392,-0.402 -0.683,-0.498c-0.291,-0.096 -0.71,-0.144 -1.257,-0.144l-1.986,0l0,2.954Z" style="fill-rule:nonzero;"/><path d="M11.341,8.759l3.299,-8.59l1.224,0l3.516,8.59l-1.295,0l-1.002,-2.601l-3.592,0l-0.943,2.601l-1.207,0Zm2.478,-3.527l2.912,0l-0.896,-2.379c-0.274,-0.723 -0.477,-1.316 -0.609,-1.781c-0.11,0.551 -0.264,1.097 -0.463,1.64l-0.944,2.52Z" style="fill-rule:nonzero;"/><path d="M20.276,8.759l0,-8.59l1.166,0l4.512,6.745l0,-6.745l1.09,0l0,8.59l-1.166,0l-4.512,-6.75l0,6.75l-1.09,0Z" style="fill-rule:nonzero;"/></svg>