<?xml version="1.0" encoding="UTF-8" standalone="no"?><!DOCTYPE svg PUBLIC "-//W3C//DTD SVG 1.1//EN" "http://www.w3.org/Graphics/SVG/1.1/DTD/svg11.dtd"><svg width="100%" height="100%" viewBox="0 0 100 10" version="1.1" xmlns="http://www.w3.org/2000/svg" xmlns:xlink="http://www.w3.org/1999/xlink" xml:space="preserve" style="fill-rule:evenodd;clip-rule:evenodd;stroke-linejoin:round;stroke-miterlimit:1.41421;"><path d="M0.01,8.793l0,-8.589l1.137,0l0,4.259l4.266,-4.259l1.541,0l-3.604,3.48l3.762,5.109l-1.5,0l-3.059,-4.347l-1.406,1.371l0,2.976l-1.137,0Z" style="fill-rule:nonzero;"/><path d="M7.715,4.61c0,-1.426 0.383,-2.542 1.149,-3.349c0.765,-0.806 1.754,-1.21 2.965,-1.21c0.793,0 1.507,0.19 2.144,0.569c0.637,0.379 1.122,0.907 1.456,1.585c0.334,0.677 0.501,1.446 0.501,2.305c0,0.871 -0.176,1.651 -0.527,2.338c-0.352,0.688 -0.85,1.208 -1.494,1.562c-0.645,0.353 -1.34,0.53 -2.086,0.53c-0.809,0 -1.532,-0.195 -2.168,-0.586c-0.637,-0.391 -1.119,-0.924 -1.448,-1.6c-0.328,-0.675 -0.492,-1.39 -0.492,-2.144Zm1.172,0.017c0,1.036 0.278,1.851 0.835,2.447c0.557,0.595 1.255,0.893 2.095,0.893c0.855,0 1.559,-0.301 2.112,-0.902c0.553,-0.602 0.829,-1.455 0.829,-2.561c0,-0.699 -0.118,-1.309 -0.354,-1.831c-0.237,-0.521 -0.582,-0.925 -1.037,-1.213c-0.455,-0.287 -0.966,-0.43 -1.533,-0.43c-0.804,0 -1.497,0.276 -2.077,0.829c-0.58,0.553 -0.87,1.475 -0.87,2.768Z" style="fill-rule:nonzero;"/><path d="M17.383,8.793l0,-8.589l1.166,0l4.512,6.744l0,-6.744l1.09,0l0,8.589l-1.166,0l-4.512,-6.75l0,6.75l-1.09,0Z" style="fill-rule:nonzero;"/><path d="M28.247,8.793l0,-7.576l-2.831,0l0,-1.013l6.809,0l0,1.013l-2.842,0l0,7.576l-1.136,0Z" style="fill-rule:nonzero;"/><path d="M32.829,4.61c0,-1.426 0.382,-2.542 1.148,-3.349c0.766,-0.806 1.754,-1.21 2.965,-1.21c0.793,0 1.508,0.19 2.144,0.569c0.637,0.379 1.122,0.907 1.456,1.585c0.334,0.677 0.501,1.446 0.501,2.305c0,0.871 -0.175,1.651 -0.527,2.338c-0.352,0.688 -0.85,1.208 -1.494,1.562c-0.645,0.353 -1.34,0.53 -2.086,0.53c-0.809,0 -1.531,-0.195 -2.168,-0.586c-0.637,-0.391 -1.119,-0.924 -1.447,-1.6c-0.328,-0.675 -0.492,-1.39 -0.492,-2.144Zm1.171,0.017c0,1.036 0.279,1.851 0.835,2.447c0.557,0.595 1.255,0.893 2.095,0.893c0.856,0 1.56,-0.301 2.112,-0.902c0.553,-0.602 0.83,-1.455 0.83,-2.561c0,-0.699 -0.119,-1.309 -0.355,-1.831c-0.236,-0.521 -0.582,-0.925 -1.037,-1.213c-0.455,-0.287 -0.966,-0.43 -1.532,-0.43c-0.805,0 -1.497,0.276 -2.077,0.829c-0.581,0.553 -0.871,1.475 -0.871,2.768Z" style="fill-rule:nonzero;"/><path d="M41.565,8.793l3.299,-8.589l1.224,0l3.516,8.589l-1.295,0l-1.002,-2.601l-3.592,0l-0.943,2.601l-1.207,0Zm2.478,-3.527l2.912,0l-0.896,-2.379c-0.273,-0.722 -0.477,-1.316 -0.609,-1.781c-0.11,0.551 -0.264,1.098 -0.463,1.641l-0.944,2.519Z" style="fill-rule:nonzero;"/><path d="M56.149,0.204l1.137,0l0,4.962c0,0.864 -0.098,1.549 -0.293,2.057c-0.196,0.508 -0.548,0.921 -1.058,1.239c-0.51,0.319 -1.179,0.478 -2.007,0.478c-0.805,0 -1.463,-0.139 -1.974,-0.416c-0.512,-0.277 -0.877,-0.679 -1.096,-1.204c-0.219,-0.526 -0.328,-1.243 -0.328,-2.154l0,-4.962l1.136,0l0,4.957c0,0.746 0.07,1.296 0.208,1.649c0.139,0.354 0.377,0.626 0.715,0.817c0.338,0.192 0.751,0.288 1.24,0.288c0.835,0 1.431,-0.19 1.787,-0.569c0.355,-0.379 0.533,-1.107 0.533,-2.185l0,-4.957Z" style="fill-rule:nonzero;"/><path d="M58.791,6.034l1.073,-0.094c0.05,0.43 0.169,0.782 0.354,1.058c0.186,0.275 0.474,0.498 0.864,0.668c0.391,0.169 0.831,0.254 1.319,0.254c0.433,0 0.816,-0.064 1.148,-0.193c0.332,-0.129 0.579,-0.306 0.741,-0.53c0.163,-0.225 0.244,-0.47 0.244,-0.736c0,-0.269 -0.079,-0.504 -0.235,-0.706c-0.156,-0.201 -0.414,-0.37 -0.773,-0.506c-0.231,-0.09 -0.74,-0.23 -1.529,-0.419c-0.79,-0.19 -1.342,-0.369 -1.659,-0.537c-0.41,-0.214 -0.716,-0.481 -0.917,-0.799c-0.201,-0.319 -0.301,-0.675 -0.301,-1.07c0,-0.433 0.123,-0.839 0.369,-1.216c0.246,-0.376 0.605,-0.663 1.078,-0.858c0.472,-0.195 0.998,-0.293 1.576,-0.293c0.637,0 1.198,0.103 1.685,0.308c0.486,0.205 0.86,0.507 1.122,0.905c0.261,0.398 0.402,0.85 0.422,1.354l-1.09,0.082c-0.059,-0.543 -0.257,-0.954 -0.595,-1.231c-0.338,-0.277 -0.837,-0.416 -1.497,-0.416c-0.688,0 -1.189,0.126 -1.503,0.378c-0.315,0.252 -0.472,0.556 -0.472,0.911c0,0.309 0.112,0.563 0.334,0.762c0.219,0.199 0.79,0.403 1.714,0.612c0.924,0.209 1.558,0.392 1.901,0.548c0.5,0.23 0.87,0.522 1.108,0.876c0.238,0.353 0.357,0.761 0.357,1.222c0,0.457 -0.131,0.887 -0.392,1.292c-0.262,0.404 -0.638,0.718 -1.128,0.943c-0.49,0.225 -1.042,0.337 -1.655,0.337c-0.778,0 -1.429,-0.113 -1.955,-0.34c-0.525,-0.226 -0.937,-0.567 -1.236,-1.022c-0.299,-0.455 -0.456,-0.97 -0.472,-1.544Z" style="fill-rule:nonzero;"/><path d="M68.682,8.793l-2.279,-8.589l1.166,0l1.306,5.63c0.141,0.59 0.262,1.176 0.364,1.758c0.218,-0.918 0.347,-1.447 0.386,-1.588l1.635,-5.8l1.371,0l1.231,4.347c0.308,1.078 0.531,2.092 0.668,3.041c0.109,-0.543 0.252,-1.166 0.427,-1.869l1.348,-5.519l1.143,0l-2.356,8.589l-1.095,0l-1.811,-6.544c-0.152,-0.547 -0.242,-0.883 -0.27,-1.008c-0.089,0.394 -0.173,0.73 -0.252,1.008l-1.822,6.544l-1.16,0Z" style="fill-rule:nonzero;"/><path d="M77.12,8.793l3.298,-8.589l1.225,0l3.516,8.589l-1.295,0l-1.002,-2.601l-3.592,0l-0.943,2.601l-1.207,0Zm2.478,-3.527l2.912,0l-0.896,-2.379c-0.274,-0.722 -0.477,-1.316 -0.61,-1.781c-0.109,0.551 -0.263,1.098 -0.463,1.641l-0.943,2.519Z" style="fill-rule:nonzero;"/><path d="M86.102,8.793l0,-8.589l1.137,0l0,3.527l4.465,0l0,-3.527l1.136,0l0,8.589l-1.136,0l0,-4.048l-4.465,0l0,4.048l-1.137,0Z" style="fill-rule:nonzero;"/><path d="M94.686,8.793l0,-8.589l1.137,0l0,7.576l4.23,0l0,1.013l-5.367,0Z" style="fill-rule:nonzero;"/></svg>