<?xml version="1.0" encoding="UTF-8" standalone="no"?><!DOCTYPE svg PUBLIC "-//W3C//DTD SVG 1.1//EN" "http://www.w3.org/Graphics/SVG/1.1/DTD/svg11.dtd"><svg width="100%" height="100%" viewBox="0 0 28 9" version="1.1" xmlns="http://www.w3.org/2000/svg" xmlns:xlink="http://www.w3.org/1999/xlink" xml:space="preserve" style="fill-rule:evenodd;clip-rule:evenodd;stroke-linejoin:round;stroke-miterlimit:1.41421;"><path d="M0.911,8.759l0,-8.59l1.711,0l2.033,6.082c0.188,0.567 0.324,0.991 0.41,1.272c0.098,-0.313 0.25,-0.772 0.457,-1.377l2.057,-5.977l1.529,0l0,8.59l-1.095,0l0,-7.189l-2.496,7.189l-1.026,0l-2.484,-7.312l0,7.312l-1.096,0Z" style="fill-rule:nonzero;"/><path d="M9.999,8.759l3.299,-8.59l1.224,0l3.516,8.59l-1.295,0l-1.002,-2.601l-3.592,0l-0.943,2.601l-1.207,0Zm2.478,-3.527l2.913,0l-0.897,-2.379c-0.273,-0.723 -0.476,-1.316 -0.609,-1.781c-0.11,0.551 -0.264,1.097 -0.463,1.64l-0.944,2.52Z" style="fill-rule:nonzero;"/><rect x="19.14" y="0.169" width="1.137" height="8.59" style="fill-rule:nonzero;"/><path d="M22.233,8.759l0,-8.59l1.137,0l0,7.577l4.231,0l0,1.013l-5.368,0Z" style="fill-rule:nonzero;"/></svg>