<?xml version="1.0" encoding="utf-8"?>
<!-- Generator: Adobe Illustrator 18.1.1, SVG Export Plug-In . SVG Version: 6.00 Build 0)  -->
<!DOCTYPE svg PUBLIC "-//W3C//DTD SVG 1.1//EN" "http://www.w3.org/Graphics/SVG/1.1/DTD/svg11.dtd">
<svg version="1.1" id="Ebene_1" xmlns="http://www.w3.org/2000/svg" xmlns:xlink="http://www.w3.org/1999/xlink" x="0px" y="0px"
	 viewBox="7 7 16 16" enable-background="new 0 0 30 30" xml:space="preserve">
<g>
	<path fill="#F6F6F6" d="M9.1,22.8c-0.8,0-1.5-0.7-1.5-1.5V8.7c0-0.8,0.7-1.5,1.5-1.5h7.9l3.6,3.6v10.6c0,0.8-0.7,1.5-1.5,1.5H9.1"
		/>
	<path fill="#E0E0E0" d="M17,7.3l3.5,3.5v10.5c0,0.7-0.6,1.3-1.3,1.3h-10c-0.7,0-1.3-0.6-1.3-1.3V8.7c0-0.7,0.6-1.3,1.3-1.3H17
		 M17.1,7h-8C8.2,7,7.5,7.7,7.5,8.7v12.7c0,0.9,0.7,1.7,1.7,1.7h10c0.9,0,1.7-0.7,1.7-1.7V10.7L17.1,7z"/>
	<path fill="#D8D9D9" d="M18.1,17h-4.5c-0.3,0-0.5,0.2-0.5,0.5s0.2,0.5,0.5,0.5h4.5c0.3,0,0.5-0.2,0.5-0.5S18.3,17,18.1,17"/>
	<path fill="#D8D9D9" d="M18.1,19h-4.5c-0.3,0-0.5,0.2-0.5,0.5s0.2,0.5,0.5,0.5h4.5c0.3,0,0.5-0.2,0.5-0.5S18.3,19,18.1,19"/>
	<path fill="#D8D9D9" d="M18.2,15h-8.2c-0.3,0-0.5,0.2-0.5,0.5c0,0.3,0.2,0.5,0.5,0.5h8.2c0.3,0,0.5-0.2,0.5-0.5
		C18.7,15.2,18.5,15,18.2,15"/>
	<g>
		<defs>
			<polyline id="SVGID_19_" points="20.8,13 7.5,13 7.5,7 20.8,7 20.8,13 			"/>
		</defs>
		<clipPath id="SVGID_2_">
			<use xlink:href="#SVGID_19_"  overflow="visible"/>
		</clipPath>
		<path clip-path="url(#SVGID_2_)" fill="#D84A54" d="M9.1,22.8c-0.8,0-1.5-0.7-1.5-1.5V8.7c0-0.8,0.7-1.5,1.5-1.5h7.9l3.6,3.6v10.6
			c0,0.8-0.7,1.5-1.5,1.5H9.1z"/>
		<path clip-path="url(#SVGID_2_)" fill="#C4444D" d="M17,7.3l3.5,3.5v10.5c0,0.7-0.6,1.3-1.3,1.3h-10c-0.7,0-1.3-0.6-1.3-1.3V8.7
			c0-0.7,0.6-1.3,1.3-1.3H17 M17.1,7h-8C8.2,7,7.5,7.7,7.5,8.7v12.7c0,0.9,0.7,1.7,1.7,1.7h10c0.9,0,1.7-0.7,1.7-1.7V10.7L17.1,7z"
			/>
		<g clip-path="url(#SVGID_2_)">
			<defs>
				<path id="SVGID_21_" d="M20.8,21.3c0,0.9-0.7,1.7-1.7,1.7h-10c-0.9,0-1.7-0.7-1.7-1.7V8.7C7.5,7.7,8.2,7,9.1,7h8l3.7,3.7V21.3"
					/>
			</defs>
			<clipPath id="SVGID_4_">
				<use xlink:href="#SVGID_21_"  overflow="visible"/>
			</clipPath>
			<polygon clip-path="url(#SVGID_4_)" fill="#C4444D" points="17.6,10.2 20.9,13.4 20.9,10.2 			"/>
		</g>
		<g clip-path="url(#SVGID_2_)">
			<defs>
				<path id="SVGID_23_" d="M20.8,21.3c0,0.9-0.7,1.7-1.7,1.7h-10c-0.9,0-1.7-0.7-1.7-1.7V8.7C7.5,7.7,8.2,7,9.1,7h8l3.7,3.7V21.3"
					/>
			</defs>
			<clipPath id="SVGID_6_">
				<use xlink:href="#SVGID_23_"  overflow="visible"/>
			</clipPath>
			<path clip-path="url(#SVGID_6_)" fill="#ECA4A9" d="M21.1,10.7h-2.3c-0.9,0-1.7-0.7-1.7-1.7V6.7h4V10.7z"/>
		</g>
	</g>
	<g>
		<g>
			<path fill="#FFFFFF" d="M9.4,9.1H10c0.2,0,0.3,0.1,0.4,0.2c0.1,0.1,0.2,0.2,0.2,0.4c0,0.1,0,0.2-0.1,0.3
				c-0.1,0.1-0.1,0.2-0.2,0.2c-0.1,0-0.2,0.1-0.3,0.1l-0.2,0V11H9.4V9.1z M9.8,9.4v0.5h0.2c0.1,0,0.1,0,0.2-0.1c0,0,0.1-0.1,0.1-0.2
				c0-0.1,0-0.1-0.1-0.2C10,9.4,10,9.4,9.8,9.4L9.8,9.4z"/>
			<path fill="#FFFFFF" d="M10.9,9.1h0.7c0.3,0,0.5,0.1,0.7,0.3c0.2,0.2,0.3,0.4,0.3,0.7c0,0.3-0.1,0.5-0.3,0.7
				c-0.2,0.2-0.4,0.3-0.7,0.3h-0.6V9.1z M11.3,9.4v1.2h0.2c0.2,0,0.3,0,0.4-0.1c0.1-0.1,0.2-0.2,0.2-0.5c0-0.1,0-0.2-0.1-0.3
				c-0.1-0.1-0.1-0.2-0.2-0.2c-0.1,0-0.2-0.1-0.3-0.1H11.3z"/>
			<path fill="#FFFFFF" d="M12.8,9.1h1.1v0.4h-0.7v0.4h0.7v0.4h-0.7V11h-0.4V9.1z"/>
		</g>
	</g>
	<path fill="#E0E0E0" d="M12.1,19.5c0,0.3-0.2,0.5-0.5,0.5H10c-0.3,0-0.5-0.2-0.5-0.5v-2c0-0.3,0.2-0.5,0.5-0.5h1.7
		c0.3,0,0.5,0.2,0.5,0.5V19.5z"/>
</g>
</svg>
