<?xml version="1.0" encoding="utf-8"?>
<!-- Generator: Adobe Illustrator 18.1.1, SVG Export Plug-In . SVG Version: 6.00 Build 0)  -->
<!DOCTYPE svg PUBLIC "-//W3C//DTD SVG 1.1//EN" "http://www.w3.org/Graphics/SVG/1.1/DTD/svg11.dtd">
<svg version="1.1" id="Ebene_1" xmlns="http://www.w3.org/2000/svg" xmlns:xlink="http://www.w3.org/1999/xlink" x="0px" y="0px"
	 viewBox="7 7 16 16" enable-background="new 0 0 30 30" xml:space="preserve">
<g>
	<path fill="#F6F6F6" d="M10.2,22.8c-0.8,0-1.5-0.7-1.5-1.5V8.7c0-0.8,0.7-1.5,1.5-1.5h7.9l3.6,3.6v10.6c0,0.8-0.7,1.5-1.5,1.5H10.2
		z"/>
	<path fill="#E0E0E0" d="M18.1,7.3l3.5,3.5v10.5c0,0.7-0.6,1.3-1.3,1.3h-10c-0.7,0-1.3-0.6-1.3-1.3V8.7c0-0.7,0.6-1.3,1.3-1.3H18.1
		 M18.2,7h-8C9.3,7,8.5,7.8,8.5,8.7v12.7c0,0.9,0.7,1.7,1.7,1.7h10c0.9,0,1.7-0.7,1.7-1.7V10.7L18.2,7z"/>
	<g>
		<defs>
			<polyline id="SVGID_25_" points="21.9,13 8.5,13 8.5,7 21.9,7 21.9,13 			"/>
		</defs>
		<clipPath id="SVGID_2_">
			<use xlink:href="#SVGID_25_"  overflow="visible"/>
		</clipPath>
		<path clip-path="url(#SVGID_2_)" fill="#69AC46" d="M10.2,22.8c-0.8,0-1.5-0.7-1.5-1.5V8.7c0-0.8,0.7-1.5,1.5-1.5h7.9l3.6,3.6
			v10.6c0,0.8-0.7,1.5-1.5,1.5H10.2z"/>
		<path clip-path="url(#SVGID_2_)" fill="#5D973D" d="M18.1,7.3l3.5,3.5v10.5c0,0.7-0.6,1.3-1.3,1.3h-10c-0.7,0-1.3-0.6-1.3-1.3V8.7
			c0-0.7,0.6-1.3,1.3-1.3H18.1 M18.2,7h-8C9.3,7,8.5,7.8,8.5,8.7v12.7c0,0.9,0.7,1.7,1.7,1.7h10c0.9,0,1.7-0.7,1.7-1.7V10.7L18.2,7z
			"/>
		<g clip-path="url(#SVGID_2_)">
			<defs>
				<path id="SVGID_27_" d="M21.9,21.3c0,0.9-0.7,1.7-1.7,1.7h-10c-0.9,0-1.7-0.7-1.7-1.7V8.7C8.5,7.8,9.3,7,10.2,7h8l3.7,3.7V21.3"
					/>
			</defs>
			<clipPath id="SVGID_4_">
				<use xlink:href="#SVGID_27_"  overflow="visible"/>
			</clipPath>
			<polygon clip-path="url(#SVGID_4_)" fill="#5D973D" points="18.7,10.2 21.9,13.4 21.9,10.2 			"/>
		</g>
		<g clip-path="url(#SVGID_2_)">
			<defs>
				<path id="SVGID_29_" d="M21.9,21.3c0,0.9-0.7,1.7-1.7,1.7h-10c-0.9,0-1.7-0.7-1.7-1.7V8.7C8.5,7.8,9.3,7,10.2,7h8l3.7,3.7V21.3"
					/>
			</defs>
			<clipPath id="SVGID_6_">
				<use xlink:href="#SVGID_29_"  overflow="visible"/>
			</clipPath>
			<path clip-path="url(#SVGID_6_)" fill="#B3D5A3" d="M22.2,10.7h-2.3c-0.9,0-1.7-0.7-1.7-1.7V6.7h4V10.7z"/>
		</g>
	</g>
	<path fill="#E0E0E0" d="M10.5,15v5h9.3v-5H10.5z M18.9,16v1h-4.3v-1H18.9z M13.9,16v1h-2.3v-1H13.9z M11.5,18h2.3v1h-2.3V18z
		 M14.5,19v-1h4.3v1H14.5z"/>
	<g>
		<g>
			<path fill="#FFFFFF" d="M10.3,9.1h0.4l0.4,0.6l0.4-0.6H12L11.4,10l0.7,1h-0.4l-0.5-0.7L10.7,11h-0.4l0.7-1L10.3,9.1z"/>
			<path fill="#FFFFFF" d="M12.3,9.1h0.4v1.5h0.6V11h-1V9.1z"/>
			<path fill="#FFFFFF" d="M14.1,9.1c0.2,0,0.4,0.1,0.5,0.2l-0.3,0.3c-0.1-0.1-0.2-0.1-0.3-0.1c0,0-0.1,0-0.1,0.1c0,0,0,0.1,0,0.1
				c0,0.1,0.1,0.2,0.3,0.2c0.1,0.1,0.2,0.1,0.3,0.1c0.1,0,0.1,0.1,0.2,0.2c0,0.1,0.1,0.2,0.1,0.3c0,0.2-0.1,0.3-0.2,0.4
				C14.4,11,14.2,11,14.1,11c-0.2,0-0.4-0.1-0.6-0.3l0.3-0.3c0.1,0.1,0.2,0.2,0.3,0.2c0,0,0.1,0,0.1-0.1c0,0,0.1-0.1,0.1-0.1
				c0-0.1-0.1-0.2-0.3-0.3c-0.1,0-0.2-0.1-0.3-0.1c-0.1,0-0.1-0.1-0.1-0.2c0-0.1-0.1-0.1-0.1-0.2c0-0.2,0.1-0.3,0.2-0.4
				C13.8,9.1,14,9.1,14.1,9.1L14.1,9.1z"/>
		</g>
	</g>
</g>
</svg>
