<?xml version="1.0" encoding="utf-8"?>
<!-- Generator: Adobe Illustrator 18.1.1, SVG Export Plug-In . SVG Version: 6.00 Build 0)  -->
<!DOCTYPE svg PUBLIC "-//W3C//DTD SVG 1.1//EN" "http://www.w3.org/Graphics/SVG/1.1/DTD/svg11.dtd">
<svg version="1.1" id="Ebene_1" xmlns="http://www.w3.org/2000/svg" xmlns:xlink="http://www.w3.org/1999/xlink" x="0px" y="0px"
	 viewBox="7 7 16 16" enable-background="new 0 0 30 30" xml:space="preserve">
<g>
	<g>
		<path fill="#F6F6F6" d="M10,22.9c-0.8,0-1.5-0.7-1.5-1.5V8.8c0-0.8,0.7-1.5,1.5-1.5H18l3.6,3.6v10.6c0,0.8-0.7,1.5-1.5,1.5H10z"/>
		<path fill="#E0E0E0" d="M17.9,7.4l3.5,3.5v10.5c0,0.7-0.6,1.3-1.3,1.3H10c-0.7,0-1.3-0.6-1.3-1.3V8.8C8.7,8,9.3,7.4,10,7.4H17.9
			 M18,7.1h-8c-0.9,0-1.7,0.7-1.7,1.7v12.7c0,0.9,0.7,1.7,1.7,1.7h10c0.9,0,1.7-0.7,1.7-1.7V10.8L18,7.1z"/>
		<g>
			<defs>
				<polyline id="SVGID_13_" points="21.7,13.1 8.4,13.1 8.4,7.1 21.7,7.1 21.7,13.1 				"/>
			</defs>
			<clipPath id="SVGID_2_">
				<use xlink:href="#SVGID_13_"  overflow="visible"/>
			</clipPath>
			<path clip-path="url(#SVGID_2_)" fill="#3CBCEC" d="M10,22.9c-0.8,0-1.5-0.7-1.5-1.5V8.8c0-0.8,0.7-1.5,1.5-1.5H18l3.6,3.6v10.6
				c0,0.8-0.7,1.5-1.5,1.5H10z"/>
			<path clip-path="url(#SVGID_2_)" fill="#34A0C1" d="M17.9,7.4l3.5,3.5v10.5c0,0.7-0.6,1.3-1.3,1.3H10c-0.7,0-1.3-0.6-1.3-1.3V8.8
				C8.7,8,9.3,7.4,10,7.4H17.9 M18,7.1h-8c-0.9,0-1.7,0.7-1.7,1.7v12.7c0,0.9,0.7,1.7,1.7,1.7h10c0.9,0,1.7-0.7,1.7-1.7V10.8L18,7.1
				z"/>
			<g clip-path="url(#SVGID_2_)">
				<defs>
					<path id="SVGID_15_" d="M21.7,21.4c0,0.9-0.7,1.7-1.7,1.7H10c-0.9,0-1.7-0.7-1.7-1.7V8.8c0-0.9,0.7-1.7,1.7-1.7h8l3.7,3.7V21.4
						"/>
				</defs>
				<clipPath id="SVGID_4_">
					<use xlink:href="#SVGID_15_"  overflow="visible"/>
				</clipPath>
				<polygon opacity="0.2" clip-path="url(#SVGID_4_)" fill="#205F73" points="18.5,10.3 21.8,13.5 21.8,10.3 				"/>
			</g>
			<g clip-path="url(#SVGID_2_)">
				<defs>
					<path id="SVGID_17_" d="M21.7,21.4c0,0.9-0.7,1.7-1.7,1.7H10c-0.9,0-1.7-0.7-1.7-1.7V8.8c0-0.9,0.7-1.7,1.7-1.7h8l3.7,3.7V21.4
						"/>
				</defs>
				<clipPath id="SVGID_6_">
					<use xlink:href="#SVGID_17_"  overflow="visible"/>
				</clipPath>
				<path clip-path="url(#SVGID_6_)" fill="#339CBD" d="M22,10.8h-2.3c-0.9,0-1.7-0.7-1.7-1.7V6.8h4V10.8z"/>
			</g>
		</g>
	</g>
	<path fill="#D8D9D9" d="M19.3,17.1h-4.5c-0.3,0-0.5,0.2-0.5,0.5c0,0.3,0.2,0.5,0.5,0.5h4.5c0.3,0,0.5-0.2,0.5-0.5
		C19.8,17.3,19.6,17.1,19.3,17.1"/>
	<path fill="#D8D9D9" d="M19.3,19.1h-4.5c-0.3,0-0.5,0.2-0.5,0.5c0,0.3,0.2,0.5,0.5,0.5h4.5c0.3,0,0.5-0.2,0.5-0.5
		C19.8,19.3,19.6,19.1,19.3,19.1"/>
	<path fill="#D8D9D9" d="M19.5,15.1h-8.2c-0.3,0-0.5,0.2-0.5,0.5s0.2,0.5,0.5,0.5h8.2c0.3,0,0.5-0.2,0.5-0.5S19.7,15.1,19.5,15.1"/>
	<path fill="#E0E0E0" d="M13.4,19.6c0,0.3-0.2,0.5-0.5,0.5h-1.7c-0.3,0-0.5-0.2-0.5-0.5v-2c0-0.3,0.2-0.5,0.5-0.5h1.7
		c0.3,0,0.5,0.2,0.5,0.5V19.6z"/>
</g>
</svg>
