<?xml version="1.0" encoding="utf-8"?>
<!-- Generator: Adobe Illustrator 18.1.1, SVG Export Plug-In . SVG Version: 6.00 Build 0)  -->
<!DOCTYPE svg PUBLIC "-//W3C//DTD SVG 1.1//EN" "http://www.w3.org/Graphics/SVG/1.1/DTD/svg11.dtd">
<svg version="1.1" id="Ebene_1" xmlns="http://www.w3.org/2000/svg" xmlns:xlink="http://www.w3.org/1999/xlink" x="0px" y="0px"
	 viewBox="7 7 16 16" enable-background="new 0 0 30 30" xml:space="preserve">
<g>
	<path fill="#F6F6F6" d="M10,22.8c-0.8,0-1.5-0.7-1.5-1.5V8.6c0-0.8,0.7-1.5,1.5-1.5h7.9l3.6,3.6v10.6c0,0.8-0.7,1.5-1.5,1.5H10"/>
	<path fill="#E0E0E0" d="M17.9,7.2l3.5,3.5v10.5c0,0.7-0.6,1.3-1.3,1.3H10c-0.7,0-1.3-0.6-1.3-1.3V8.6c0-0.7,0.6-1.3,1.3-1.3H17.9
		 M18,6.9h-8c-0.9,0-1.7,0.7-1.7,1.7v12.7c0,0.9,0.7,1.7,1.7,1.7h10c0.9,0,1.7-0.7,1.7-1.7V10.6L18,6.9z"/>
	<g>
		<defs>
			<polyline id="SVGID_31_" points="21.7,12.9 8.3,12.9 8.3,6.9 21.7,6.9 21.7,12.9 			"/>
		</defs>
		<clipPath id="SVGID_2_">
			<use xlink:href="#SVGID_31_"  overflow="visible"/>
		</clipPath>
		<path clip-path="url(#SVGID_2_)" fill="#3597D4" d="M10,22.8c-0.8,0-1.5-0.7-1.5-1.5V8.6c0-0.8,0.7-1.5,1.5-1.5h7.9l3.6,3.6v10.6
			c0,0.8-0.7,1.5-1.5,1.5H10z"/>
		<path clip-path="url(#SVGID_2_)" fill="#2D8AC5" d="M17.9,7.2l3.5,3.5v10.5c0,0.7-0.6,1.3-1.3,1.3H10c-0.7,0-1.3-0.6-1.3-1.3V8.6
			c0-0.7,0.6-1.3,1.3-1.3H17.9 M18,6.9h-8c-0.9,0-1.7,0.7-1.7,1.7v12.7c0,0.9,0.7,1.7,1.7,1.7h10c0.9,0,1.7-0.7,1.7-1.7V10.6L18,6.9
			z"/>
		<g clip-path="url(#SVGID_2_)">
			<defs>
				<path id="SVGID_33_" d="M21.7,21.2c0,0.9-0.7,1.7-1.7,1.7H10c-0.9,0-1.7-0.7-1.7-1.7V8.6c0-0.9,0.7-1.7,1.7-1.7h8l3.7,3.7V21.2"
					/>
			</defs>
			<clipPath id="SVGID_4_">
				<use xlink:href="#SVGID_33_"  overflow="visible"/>
			</clipPath>
			<polygon clip-path="url(#SVGID_4_)" fill="#2D8AC5" points="18.5,10.1 21.7,13.3 21.7,10.1 			"/>
		</g>
		<g clip-path="url(#SVGID_2_)">
			<defs>
				<path id="SVGID_35_" d="M21.7,21.2c0,0.9-0.7,1.7-1.7,1.7H10c-0.9,0-1.7-0.7-1.7-1.7V8.6c0-0.9,0.7-1.7,1.7-1.7h8l3.7,3.7V21.2"
					/>
			</defs>
			<clipPath id="SVGID_6_">
				<use xlink:href="#SVGID_35_"  overflow="visible"/>
			</clipPath>
			<path clip-path="url(#SVGID_6_)" fill="#98CCED" d="M22,10.6h-2.3c-0.9,0-1.7-0.7-1.7-1.7V6.6h4V10.6z"/>
		</g>
	</g>
	<g>
		<g>
			<path fill="#FFFFFF" d="M10.2,9h0.7c0.3,0,0.5,0.1,0.7,0.3c0.2,0.2,0.3,0.4,0.3,0.7c0,0.3-0.1,0.5-0.3,0.7
				c-0.2,0.2-0.4,0.3-0.7,0.3h-0.6V9z M10.6,9.4v1.2h0.2c0.2,0,0.3,0,0.4-0.1c0.1-0.1,0.2-0.2,0.2-0.5c0-0.1,0-0.2-0.1-0.3
				c-0.1-0.1-0.1-0.2-0.2-0.2c-0.1,0-0.2-0.1-0.3-0.1H10.6z"/>
			<path fill="#FFFFFF" d="M12,10c0-0.3,0.1-0.5,0.3-0.7C12.5,9.1,12.7,9,13,9c0.3,0,0.5,0.1,0.7,0.3C13.9,9.4,14,9.7,14,10
				c0,0.3-0.1,0.5-0.3,0.7c-0.2,0.2-0.4,0.3-0.7,0.3s-0.5-0.1-0.7-0.3C12.1,10.5,12,10.2,12,10z M13,9.4c-0.2,0-0.3,0.1-0.4,0.2
				c-0.1,0.1-0.1,0.3-0.1,0.4c0,0.2,0.1,0.3,0.2,0.4c0.1,0.1,0.2,0.2,0.4,0.2c0.2,0,0.3-0.1,0.4-0.2c0.1-0.1,0.1-0.3,0.1-0.4
				c0-0.2,0-0.3-0.1-0.4C13.3,9.4,13.2,9.4,13,9.4z"/>
			<path fill="#FFFFFF" d="M15.2,9c0.2,0,0.4,0,0.5,0.1v0.5c-0.2-0.1-0.4-0.2-0.5-0.2c-0.2,0-0.3,0.1-0.4,0.2
				c-0.1,0.1-0.1,0.3-0.1,0.4c0,0.2,0,0.3,0.1,0.4c0.1,0.1,0.2,0.2,0.4,0.2c0.1,0,0.3-0.1,0.5-0.2v0.5c-0.2,0.1-0.4,0.1-0.6,0.1
				c-0.3,0-0.5-0.1-0.7-0.3c-0.2-0.2-0.3-0.4-0.3-0.7c0-0.3,0.1-0.5,0.3-0.7C14.7,9.1,15,9,15.2,9L15.2,9z"/>
		</g>
	</g>
	<path fill="#D8D9D9" d="M19.2,14.9H11c-0.3,0-0.5,0.2-0.5,0.5s0.2,0.5,0.5,0.5h8.2c0.3,0,0.5-0.2,0.5-0.5S19.5,14.9,19.2,14.9"/>
	<path fill="#D8D9D9" d="M19.2,16.9H11c-0.3,0-0.5,0.2-0.5,0.5c0,0.3,0.2,0.5,0.5,0.5h8.2c0.3,0,0.5-0.2,0.5-0.5
		C19.7,17.1,19.5,16.9,19.2,16.9"/>
	<path fill="#D8D9D9" d="M15.7,18.9H11c-0.3,0-0.5,0.2-0.5,0.5c0,0.3,0.2,0.5,0.5,0.5h4.7c0.3,0,0.5-0.2,0.5-0.5
		C16.2,19.1,16,18.9,15.7,18.9"/>
</g>
</svg>
