<?xml version="1.0" encoding="utf-8"?>
<!-- Generator: Adobe Illustrator 18.1.1, SVG Export Plug-In . SVG Version: 6.00 Build 0)  -->
<!DOCTYPE svg PUBLIC "-//W3C//DTD SVG 1.1//EN" "http://www.w3.org/Graphics/SVG/1.1/DTD/svg11.dtd">
<svg version="1.1" id="Ebene_1" xmlns="http://www.w3.org/2000/svg" xmlns:xlink="http://www.w3.org/1999/xlink" x="0px" y="0px"
	 viewBox="7 7 16 16" enable-background="new 0 0 30 30" xml:space="preserve">
<g>
	<path fill="#F6F6F6" d="M10,22.8c-0.8,0-1.5-0.7-1.5-1.5V8.7c0-0.8,0.7-1.5,1.5-1.5h7.9l3.6,3.6v10.6c0,0.8-0.7,1.5-1.5,1.5H10"/>
	<path fill="#E0E0E0" d="M17.9,7.3l3.5,3.5v10.5c0,0.7-0.6,1.3-1.3,1.3H10c-0.7,0-1.3-0.6-1.3-1.3V8.7c0-0.7,0.6-1.3,1.3-1.3H17.9
		 M18,7h-8C9.1,7,8.3,7.7,8.3,8.7v12.7c0,0.9,0.7,1.7,1.7,1.7h10c0.9,0,1.7-0.7,1.7-1.7V10.7L18,7"/>
	<g>
		<defs>
			<polyline id="SVGID_63_" points="21.7,13 8.3,13 8.3,7 21.7,7 21.7,13 			"/>
		</defs>
		<clipPath id="SVGID_2_">
			<use xlink:href="#SVGID_63_"  overflow="visible"/>
		</clipPath>
		<path clip-path="url(#SVGID_2_)" fill="#5D68AE" d="M10,22.8c-0.8,0-1.5-0.7-1.5-1.5V8.7c0-0.8,0.7-1.5,1.5-1.5h7.9l3.6,3.6v10.6
			c0,0.8-0.7,1.5-1.5,1.5H10z"/>
		<path clip-path="url(#SVGID_2_)" fill="#4D569B" d="M17.9,7.3l3.5,3.5v10.5c0,0.7-0.6,1.3-1.3,1.3H10c-0.7,0-1.3-0.6-1.3-1.3V8.7
			c0-0.7,0.6-1.3,1.3-1.3H17.9 M18,7h-8C9.1,7,8.3,7.7,8.3,8.7v12.7c0,0.9,0.7,1.7,1.7,1.7h10c0.9,0,1.7-0.7,1.7-1.7V10.7L18,7z"/>
		<g clip-path="url(#SVGID_2_)">
			<defs>
				<path id="SVGID_65_" d="M21.7,21.3c0,0.9-0.7,1.7-1.7,1.7H10c-0.9,0-1.7-0.7-1.7-1.7V8.7C8.3,7.7,9.1,7,10,7h8l3.7,3.7V21.3"/>
			</defs>
			<clipPath id="SVGID_4_">
				<use xlink:href="#SVGID_65_"  overflow="visible"/>
			</clipPath>
			<polygon clip-path="url(#SVGID_4_)" fill="#4D569B" points="18.5,10.2 21.7,13.4 21.7,10.2 			"/>
		</g>
		<g clip-path="url(#SVGID_2_)">
			<defs>
				<path id="SVGID_67_" d="M21.7,21.3c0,0.9-0.7,1.7-1.7,1.7H10c-0.9,0-1.7-0.7-1.7-1.7V8.7C8.3,7.7,9.1,7,10,7h8l3.7,3.7V21.3"/>
			</defs>
			<clipPath id="SVGID_6_">
				<use xlink:href="#SVGID_67_"  overflow="visible"/>
			</clipPath>
			<path clip-path="url(#SVGID_6_)" fill="#AFB3DB" d="M22,10.7h-2.3C18.7,10.7,18,9.9,18,9V6.7h4V10.7z"/>
		</g>
	</g>
	<g>
		<g>
			<path fill="#FFFFFF" d="M10.1,9.1h1.3v0.4h-0.4V11h-0.4V9.5h-0.4V9.1z"/>
			<path fill="#FFFFFF" d="M11.6,9.1H12l0.4,0.6l0.4-0.6h0.4L12.6,10l0.7,1h-0.4l-0.5-0.7L11.9,11h-0.4l0.7-1L11.6,9.1z"/>
			<path fill="#FFFFFF" d="M13.4,9.1h1.3v0.4h-0.4V11h-0.4V9.5h-0.4V9.1z"/>
		</g>
	</g>
	<path fill="#D8D9D9" d="M19.2,15H11c-0.3,0-0.5,0.2-0.5,0.5c0,0.3,0.2,0.5,0.5,0.5h8.2c0.3,0,0.5-0.2,0.5-0.5
		C19.7,15.2,19.4,15,19.2,15"/>
	<path fill="#D8D9D9" d="M19.2,17H11c-0.3,0-0.5,0.2-0.5,0.5S10.7,18,11,18h8.2c0.3,0,0.5-0.2,0.5-0.5S19.4,17,19.2,17"/>
	<path fill="#D8D9D9" d="M19.2,19H11c-0.3,0-0.5,0.2-0.5,0.5S10.7,20,11,20h8.2c0.3,0,0.5-0.2,0.5-0.5S19.4,19,19.2,19"/>
	<rect x="17.5" y="14" fill="#ECD0D0" width="0.5" height="6.7"/>
</g>
</svg>
