<?xml version="1.0" encoding="utf-8"?>
<!-- Generator: Adobe Illustrator 18.1.1, SVG Export Plug-In . SVG Version: 6.00 Build 0)  -->
<!DOCTYPE svg PUBLIC "-//W3C//DTD SVG 1.1//EN" "http://www.w3.org/Graphics/SVG/1.1/DTD/svg11.dtd">
<svg version="1.1" id="Ebene_1" xmlns="http://www.w3.org/2000/svg" xmlns:xlink="http://www.w3.org/1999/xlink" x="0px" y="0px"
	 viewBox="7 7 16 16" enable-background="new 0 0 30 30" xml:space="preserve">
<g>
	<path fill="#F6F6F6" d="M9.2,22.7c-0.8,0-1.5-0.7-1.5-1.5V8.5C7.7,7.7,8.3,7,9.2,7h7.9l3.6,3.6v10.6c0,0.8-0.7,1.5-1.5,1.5H9.2z"/>
	<path fill="#E0E0E0" d="M17,7.2l3.5,3.5v10.5c0,0.7-0.6,1.3-1.3,1.3h-10c-0.7,0-1.3-0.6-1.3-1.3V8.5c0-0.7,0.6-1.3,1.3-1.3H17
		 M17.2,6.8h-8c-0.9,0-1.7,0.7-1.7,1.7v12.7c0,0.9,0.7,1.7,1.7,1.7h10c0.9,0,1.7-0.7,1.7-1.7V10.5L17.2,6.8z"/>
	<g>
		<defs>
			<polyline id="SVGID_69_" points="20.8,12.8 7.5,12.8 7.5,6.8 20.8,6.8 20.8,12.8 			"/>
		</defs>
		<clipPath id="SVGID_2_">
			<use xlink:href="#SVGID_69_"  overflow="visible"/>
		</clipPath>
		<path clip-path="url(#SVGID_2_)" fill="#EFBF2D" d="M9.2,22.7c-0.8,0-1.5-0.7-1.5-1.5V8.5C7.7,7.7,8.3,7,9.2,7h7.9l3.6,3.6v10.6
			c0,0.8-0.7,1.5-1.5,1.5H9.2z"/>
		<path clip-path="url(#SVGID_2_)" fill="#E0AD20" d="M17,7.2l3.5,3.5v10.5c0,0.7-0.6,1.3-1.3,1.3h-10c-0.7,0-1.3-0.6-1.3-1.3V8.5
			c0-0.7,0.6-1.3,1.3-1.3H17 M17.2,6.8h-8c-0.9,0-1.7,0.7-1.7,1.7v12.7c0,0.9,0.7,1.7,1.7,1.7h10c0.9,0,1.7-0.7,1.7-1.7V10.5
			L17.2,6.8z"/>
		<g clip-path="url(#SVGID_2_)">
			<defs>
				<path id="SVGID_71_" d="M20.8,21.2c0,0.9-0.7,1.7-1.7,1.7h-10c-0.9,0-1.7-0.7-1.7-1.7V8.5c0-0.9,0.7-1.7,1.7-1.7h8l3.7,3.7V21.2
					"/>
			</defs>
			<clipPath id="SVGID_4_">
				<use xlink:href="#SVGID_71_"  overflow="visible"/>
			</clipPath>
			<polygon clip-path="url(#SVGID_4_)" fill="#E0AD20" points="17.6,10 20.9,13.2 20.9,10 			"/>
		</g>
		<g clip-path="url(#SVGID_2_)">
			<defs>
				<path id="SVGID_73_" d="M20.8,21.2c0,0.9-0.7,1.7-1.7,1.7h-10c-0.9,0-1.7-0.7-1.7-1.7V8.5c0-0.9,0.7-1.7,1.7-1.7h8l3.7,3.7V21.2
					"/>
			</defs>
			<clipPath id="SVGID_6_">
				<use xlink:href="#SVGID_73_"  overflow="visible"/>
			</clipPath>
			<path clip-path="url(#SVGID_6_)" fill="#F6D677" d="M21.2,10.5h-2.3c-0.9,0-1.7-0.7-1.7-1.7V6.5h4V10.5z"/>
		</g>
	</g>
	<g>
		<g>
			<path fill="#FFFFFF" d="M9.4,8.9h1.4l-0.9,1.5h0.8v0.4H9.3l0.9-1.5H9.4V8.9z"/>
			<path fill="#FFFFFF" d="M11.1,8.9h0.4v1.9h-0.4V8.9z"/>
			<path fill="#FFFFFF" d="M11.9,8.9h0.7c0.2,0,0.3,0.1,0.4,0.2c0.1,0.1,0.2,0.2,0.2,0.4c0,0.1,0,0.2-0.1,0.3
				C13,9.9,12.9,10,12.8,10c-0.1,0-0.2,0.1-0.3,0.1l-0.2,0v0.7h-0.4V8.9z M12.3,9.3v0.5h0.2c0.1,0,0.1,0,0.2-0.1
				c0,0,0.1-0.1,0.1-0.2c0-0.1,0-0.1-0.1-0.2C12.6,9.3,12.5,9.2,12.3,9.3L12.3,9.3z"/>
		</g>
	</g>
	<rect x="15.2" y="21.5" fill="#E0E0E0" width="2" height="1.3"/>
	<rect x="15.2" y="20.5" fill="#E0E0E0" width="1" height="1"/>
	<rect x="16.2" y="19.5" fill="#E0E0E0" width="1" height="1"/>
	<rect x="15.2" y="18.5" fill="#E0E0E0" width="1" height="1"/>
	<rect x="16.2" y="17.5" fill="#E0E0E0" width="1" height="1"/>
	<path fill="#E0E0E0" d="M17,12.8h-1.6l-0.7,2c-0.2,0.5-0.1,1,0.2,1.4c0.3,0.4,0.8,0.6,1.2,0.6h0c0.5,0,1-0.2,1.2-0.6
		c0.3-0.4,0.4-0.9,0.2-1.4L17,12.8z"/>
	<circle fill="#F6F6F6" cx="16.2" cy="15.2" r="0.7"/>
</g>
</svg>
